<mxfile host="app.diagrams.net" modified="2023-07-09T15:23:58.302Z" agent="Mozilla/5.0 (Windows NT 10.0; Win64; x64) AppleWebKit/537.36 (KHTML, like Gecko) Chrome/114.0.0.0 Safari/537.36" etag="htZyDjhs8T3EP8HHa01c" version="21.2.9" type="device">
  <diagram name="Страница 1" id="whUjK9HGL8rVBBaz9JbW">
    <mxGraphModel dx="1050" dy="549" grid="1" gridSize="10" guides="1" tooltips="1" connect="1" arrows="1" fold="1" page="1" pageScale="1" pageWidth="827" pageHeight="1169" math="0" shadow="0">
      <root>
        <mxCell id="0" />
        <mxCell id="1" parent="0" />
        <mxCell id="eMIa8yD_CD50ex2gUvPn-8" value="" style="edgeStyle=orthogonalEdgeStyle;rounded=0;orthogonalLoop=1;jettySize=auto;html=1;" edge="1" parent="1" source="eMIa8yD_CD50ex2gUvPn-1" target="eMIa8yD_CD50ex2gUvPn-6">
          <mxGeometry relative="1" as="geometry" />
        </mxCell>
        <mxCell id="eMIa8yD_CD50ex2gUvPn-1" value="SecondArray" style="rounded=1;whiteSpace=wrap;html=1;" vertex="1" parent="1">
          <mxGeometry x="315" y="110" width="150" height="80" as="geometry" />
        </mxCell>
        <mxCell id="eMIa8yD_CD50ex2gUvPn-3" value="" style="edgeStyle=orthogonalEdgeStyle;rounded=0;orthogonalLoop=1;jettySize=auto;html=1;" edge="1" parent="1" source="eMIa8yD_CD50ex2gUvPn-2" target="eMIa8yD_CD50ex2gUvPn-1">
          <mxGeometry relative="1" as="geometry" />
        </mxCell>
        <mxCell id="eMIa8yD_CD50ex2gUvPn-2" value="Start" style="ellipse;whiteSpace=wrap;html=1;" vertex="1" parent="1">
          <mxGeometry x="340" y="10" width="100" height="50" as="geometry" />
        </mxCell>
        <mxCell id="eMIa8yD_CD50ex2gUvPn-10" value="" style="edgeStyle=orthogonalEdgeStyle;rounded=0;orthogonalLoop=1;jettySize=auto;html=1;" edge="1" parent="1" source="eMIa8yD_CD50ex2gUvPn-6" target="eMIa8yD_CD50ex2gUvPn-9">
          <mxGeometry relative="1" as="geometry" />
        </mxCell>
        <mxCell id="eMIa8yD_CD50ex2gUvPn-6" value="&amp;nbsp;string[] array 1&lt;br&gt;string array 2&lt;br&gt;count = 0" style="shape=parallelogram;perimeter=parallelogramPerimeter;whiteSpace=wrap;html=1;fixedSize=1;" vertex="1" parent="1">
          <mxGeometry x="320" y="240" width="140" height="90" as="geometry" />
        </mxCell>
        <mxCell id="eMIa8yD_CD50ex2gUvPn-12" value="" style="edgeStyle=orthogonalEdgeStyle;rounded=0;orthogonalLoop=1;jettySize=auto;html=1;" edge="1" parent="1" source="eMIa8yD_CD50ex2gUvPn-9" target="eMIa8yD_CD50ex2gUvPn-11">
          <mxGeometry relative="1" as="geometry" />
        </mxCell>
        <mxCell id="eMIa8yD_CD50ex2gUvPn-9" value="for ( i = 0; i = array1.lenght; i++)" style="shape=hexagon;perimeter=hexagonPerimeter2;whiteSpace=wrap;html=1;fixedSize=1;" vertex="1" parent="1">
          <mxGeometry x="285" y="370" width="210" height="90" as="geometry" />
        </mxCell>
        <mxCell id="eMIa8yD_CD50ex2gUvPn-15" style="edgeStyle=orthogonalEdgeStyle;rounded=0;orthogonalLoop=1;jettySize=auto;html=1;" edge="1" parent="1" source="eMIa8yD_CD50ex2gUvPn-11" target="eMIa8yD_CD50ex2gUvPn-13">
          <mxGeometry relative="1" as="geometry" />
        </mxCell>
        <mxCell id="eMIa8yD_CD50ex2gUvPn-16" style="edgeStyle=orthogonalEdgeStyle;rounded=0;orthogonalLoop=1;jettySize=auto;html=1;exitX=0;exitY=0.5;exitDx=0;exitDy=0;entryX=0;entryY=0.75;entryDx=0;entryDy=0;" edge="1" parent="1" source="eMIa8yD_CD50ex2gUvPn-11" target="eMIa8yD_CD50ex2gUvPn-9">
          <mxGeometry relative="1" as="geometry">
            <Array as="points">
              <mxPoint x="280" y="550" />
              <mxPoint x="280" y="436" />
            </Array>
          </mxGeometry>
        </mxCell>
        <mxCell id="eMIa8yD_CD50ex2gUvPn-11" value="if (array1[i].lenght&amp;lt;=3)" style="rhombus;whiteSpace=wrap;html=1;" vertex="1" parent="1">
          <mxGeometry x="300" y="500" width="180" height="100" as="geometry" />
        </mxCell>
        <mxCell id="eMIa8yD_CD50ex2gUvPn-14" value="" style="edgeStyle=orthogonalEdgeStyle;rounded=0;orthogonalLoop=1;jettySize=auto;html=1;" edge="1" parent="1" source="eMIa8yD_CD50ex2gUvPn-13" target="eMIa8yD_CD50ex2gUvPn-9">
          <mxGeometry relative="1" as="geometry" />
        </mxCell>
        <mxCell id="eMIa8yD_CD50ex2gUvPn-13" value="array2[count]&amp;nbsp; = array1[i]&lt;br&gt;count++;" style="rounded=0;whiteSpace=wrap;html=1;" vertex="1" parent="1">
          <mxGeometry x="30" y="385" width="180" height="60" as="geometry" />
        </mxCell>
        <mxCell id="eMIa8yD_CD50ex2gUvPn-17" value="Yes" style="text;html=1;align=center;verticalAlign=middle;resizable=0;points=[];autosize=1;strokeColor=none;fillColor=none;" vertex="1" parent="1">
          <mxGeometry x="140" y="518" width="40" height="30" as="geometry" />
        </mxCell>
        <mxCell id="eMIa8yD_CD50ex2gUvPn-18" value="No" style="text;html=1;align=center;verticalAlign=middle;resizable=0;points=[];autosize=1;strokeColor=none;fillColor=none;" vertex="1" parent="1">
          <mxGeometry x="270" y="498" width="40" height="30" as="geometry" />
        </mxCell>
      </root>
    </mxGraphModel>
  </diagram>
</mxfile>
